<?xml version="1.0" encoding="UTF-8"?>
<svg version="1.1" xmlns="http://www.w3.org/2000/svg" width="500" height="500" >
<path d="M0 0 C165 0 330 0 500 0 C500 165 500 330 500 500 C335 500 170 500 0 500 C0 335 0 170 0 0 Z " fill="#FEFEFE" transform="translate(0,0)"/>
<path d="M0 0 C2.22574335 0.22451458 4.45581519 0.40782878 6.6875 0.5625 C8.770625 0.706875 10.85375 0.85125 13 1 C13 9.58 13 18.16 13 27 C12.34 27 11.68 27 11 27 C10.84144531 26.34773438 10.68289062 25.69546875 10.51953125 25.0234375 C8.64282754 17.99357499 6.61027713 13.6602042 0.625 9.25 C-6.75154865 5.73735779 -14.81694274 4.33188962 -22.71875 6.875 C-29.51222027 9.9852635 -33.97660253 14.04517768 -37.375 20.6875 C-38.85745287 28.54450021 -39.02129132 35.96274019 -35 43 C-32.04594721 47.09385855 -28.61733991 50.0952576 -24.625 53.125 C-23.36706708 54.09619821 -22.10925802 55.06755688 -20.8515625 56.0390625 C-20.2112207 56.53051758 -19.57087891 57.02197266 -18.91113281 57.52832031 C-15.33723428 60.28042307 -11.80029884 63.07965485 -8.2590332 65.87353516 C-5.32073629 68.18820862 -2.37134669 70.48501424 0.60546875 72.75 C11.89091613 81.37914688 24.26010631 91.04769641 30.04613209 104.41726017 C32.62981241 109.8754118 32.62981241 109.8754118 37.58304405 112.91897392 C40.88650984 113.25329294 44.06404086 113.26824391 47.38354492 113.17944336 C48.62805923 113.18583832 49.87257355 113.19223328 51.15480042 113.19882202 C54.55753232 113.20711396 57.95454356 113.17148439 61.35649276 113.11707377 C64.91852711 113.0714074 68.48030957 113.08483079 72.04255676 113.09266663 C78.78605049 113.09910464 85.5282763 113.05732097 92.27146083 112.99594742 C104.35588357 112.88775866 116.4406873 112.86608715 128.52553827 112.85540491 C132.7666641 112.84980044 137.00709973 112.8245237 141.24801862 112.78267181 C144.50016543 112.75328573 147.75239998 112.74172661 151.00463867 112.72631836 C152.18132111 112.70917282 153.35800354 112.69202728 154.57034302 112.67436218 C156.17904015 112.671492 156.17904015 112.671492 157.82023621 112.66856384 C158.75359393 112.66018462 159.68695166 112.6518054 160.64859295 112.64317226 C163 113 163 113 164.79883289 114.29024601 C166.84976279 117.20956136 166.42999177 120.5660697 166.375 124 C166.38660156 124.72445312 166.39820313 125.44890625 166.41015625 126.1953125 C166.38102015 131.45923368 166.38102015 131.45923368 164.79661083 133.70792103 C162.3776087 135.44760874 160.82361017 135.36962272 157.85578918 135.36076355 C156.25932808 135.36694954 156.25932808 135.36694954 154.63061523 135.3732605 C153.46320801 135.36247467 152.29580078 135.35168884 151.09301758 135.34057617 C149.86362961 135.34101425 148.63424164 135.34145233 147.36759949 135.34190369 C143.99576827 135.34017038 140.62448648 135.32511401 137.25275254 135.30418181 C133.72936509 135.28544186 130.2059705 135.2836667 126.68254089 135.28010559 C120.01020185 135.27077721 113.33801007 135.2461528 106.6657359 135.21605712 C99.06970106 135.18253771 91.47365922 135.16603331 83.87756884 135.15097082 C68.25162724 135.11960385 52.6258326 135.06682806 37 135 C36.80229004 135.67546875 36.60458008 136.3509375 36.40087891 137.046875 C36.13710449 137.93890625 35.87333008 138.8309375 35.6015625 139.75 C35.21218506 141.07257813 35.21218506 141.07257813 34.81494141 142.421875 C31.72386638 152.20071031 25.40375812 160.71388091 16.5 166 C12.12999499 168.18114889 7.79609815 169.16258604 3 170 C7.51360278 175.31111906 12.23301089 180.41751148 17 185.5 C21.138742 189.91354673 25.23018232 194.345086 29.1796875 198.9296875 C32.67665069 202.90692032 36.30294891 206.76798059 39.90234375 210.65234375 C42.71976401 213.69299507 45.51765015 216.75107729 48.3125 219.8125 C49.69225995 221.31707251 51.07361923 222.82015103 52.45605469 224.32226562 C53.55402956 225.51538443 54.65092121 226.70950048 55.74707031 227.90429688 C82.82050281 257.803405 82.82050281 257.803405 119.75 270.5625 C120.44738281 270.60568359 121.14476562 270.64886719 121.86328125 270.69335938 C123.57531922 270.79889596 125.28763561 270.8998991 127 271 C127 271.66 127 272.32 127 273 C110.01102802 277.81834121 92.87289017 275.20648084 77.3515625 267.015625 C72.09073579 263.85177118 67.56361989 260.08579019 63 256 C62.18144531 255.30132812 61.36289062 254.60265625 60.51953125 253.8828125 C51.50668317 246.05925916 43.63400032 237.10362385 35.83984375 228.08984375 C33.43329844 225.35629441 30.96696804 222.67885994 28.5 220 C24.89984677 216.09020819 21.35582336 212.14133464 17.875 208.125 C14.98080664 204.84491419 12.00781108 201.63731943 9.04467773 198.41967773 C5.9606163 195.0648155 2.94515778 191.66151499 -0.03515625 188.21484375 C-3.29020682 184.54563168 -6.64606347 180.96810914 -10.00170898 177.39086914 C-13.89203414 173.21593171 -13.89203414 173.21593171 -15 171 C-17.70599842 170.52402634 -20.33595404 170.15906371 -23.0625 169.875 C-24.20041992 169.74544922 -24.20041992 169.74544922 -25.36132812 169.61328125 C-27.23996986 169.40060483 -29.11988636 169.19924541 -31 169 C-30.9329572 176.86570344 -30.84313276 184.73091153 -30.73754883 192.59619141 C-30.70267998 195.27136214 -30.67628119 197.94623638 -30.65356445 200.62158203 C-30.61998733 204.46937788 -30.56766721 208.31653489 -30.51171875 212.1640625 C-30.50532883 213.35802643 -30.4989389 214.55199036 -30.49235535 215.78213501 C-30.39412534 223.82133645 -30.39412534 223.82133645 -27 231 C-23.25025011 234.02063186 -19.72980877 234.53629326 -15 235 C-15 235.66 -15 236.32 -15 237 C-30.18 237 -45.36 237 -61 237 C-61 236.34 -61 235.68 -61 235 C-59.783125 234.7525 -58.56625 234.505 -57.3125 234.25 C-52.7678591 233.10780706 -49.47007012 231.30997773 -46.88711548 227.25128174 C-45.74722226 224.35851203 -45.71906954 221.9637023 -45.68115234 218.85449219 C-45.66128265 217.61350769 -45.64141296 216.37252319 -45.62094116 215.09393311 C-45.60906576 213.74491555 -45.59740285 212.39589611 -45.5859375 211.046875 C-45.56722093 209.66252494 -45.54764715 208.27818622 -45.5272522 206.89385986 C-45.47597638 203.25747373 -45.43632654 199.62105063 -45.39910889 195.98449707 C-45.35904055 192.27082203 -45.30796116 188.55730017 -45.2578125 184.84375 C-45.16110717 177.56260518 -45.07668537 170.28138611 -45 163 C-46.17477905 162.54753906 -46.17477905 162.54753906 -47.37329102 162.0859375 C-55.4009271 158.76714158 -60.31633496 151.57378919 -64 144 C-64.53985143 142.61466132 -65.0667642 141.22423255 -65.58276367 139.82983398 C-65.98249641 138.75293556 -65.98249641 138.75293556 -66.39030457 137.65428162 C-66.59150406 137.10836868 -66.79270355 136.56245575 -67 136 C-67.84524734 135.99413376 -68.69049469 135.98826752 -69.56135559 135.98222351 C-77.52204265 135.92435058 -85.48244752 135.85230526 -93.4428606 135.76428509 C-97.53553618 135.71953281 -101.6281111 135.68028768 -105.72094727 135.65356445 C-109.66983715 135.62757951 -113.61834066 135.587212 -117.56699181 135.53681374 C-119.07444139 135.52011229 -120.58195786 135.50861844 -122.08948708 135.50238609 C-124.19915011 135.4927801 -126.30781739 135.46476581 -128.41723633 135.43237305 C-130.21926262 135.41571846 -130.21926262 135.41571846 -132.05769348 135.39872742 C-135 135 -135 135 -136.88652039 133.70344543 C-138.81487254 130.75337556 -138.42951462 127.40413527 -138.375 124 C-138.38660156 123.27554688 -138.39820313 122.55109375 -138.41015625 121.8046875 C-138.38127222 116.58630642 -138.38127222 116.58630642 -136.89225769 114.29655457 C-134.06394638 112.35862615 -131.73010961 112.59863488 -128.32543945 112.56762695 C-127.31528778 112.55233948 -127.31528778 112.55233948 -126.284729 112.53674316 C-124.06082893 112.50657094 -121.83735926 112.49734125 -119.61328125 112.48828125 C-118.07055729 112.47143761 -116.52784708 112.45328779 -114.9851532 112.43388367 C-110.92622169 112.38634296 -106.86734591 112.35656017 -102.80822754 112.33044434 C-98.66565948 112.30065918 -94.52328357 112.25412189 -90.38085938 112.20898438 C-82.25400056 112.12290504 -74.12712434 112.0555806 -66 112 C-65.52876709 111.10579346 -65.05753418 110.21158691 -64.57202148 109.2902832 C-63.94273063 108.10618419 -63.31324438 106.92218899 -62.68359375 105.73828125 C-62.06798584 104.57594971 -61.45237793 103.41361816 -60.81811523 102.21606445 C-58.83337215 98.70525196 -56.75448366 95.92142206 -54 93 C-56.31 92.34 -58.62 91.68 -61 91 C-61 90.34 -61 89.68 -61 89 C-42.52 88.67 -24.04 88.34 -5 88 C-20.39853921 75.30647455 -20.39853921 75.30647455 -36.37109375 63.33203125 C-43.38762276 58.38464879 -49.41415474 51.70248967 -51 43 C-51.74142103 33.70020037 -52.14793031 25.14341589 -47 17 C-46.443125 15.989375 -45.88625 14.97875 -45.3125 13.9375 C-34.45569978 0.14642946 -17.13272093 -5.71090698 0 0 Z " fill="#DDDDDD" transform="translate(236,77)"/>
<path d="M0 0 C1.65 0 3.3 0 5 0 C5.4125 0.85722656 5.825 1.71445313 6.25 2.59765625 C9.91745916 9.85889793 13.40883371 15.02771666 20 20 C20.33 13.4 20.66 6.8 21 0 C25.62 0 30.24 0 35 0 C35 8.91 35 17.82 35 27 C49.54906148 26.53067544 62.82845224 25.495689 74 15 C77.5462172 10.29132986 79.81455815 5.46360462 82 0 C88.6 0 95.2 0 102 0 C100.4981004 12.01519682 95.9233544 19.79109718 87 28 C81.39438016 32.12689599 75.79908932 33.81285742 69 35 C73.51360278 40.31111906 78.23301089 45.41751148 83 50.5 C87.138742 54.91354673 91.23018232 59.345086 95.1796875 63.9296875 C98.67665069 67.90692032 102.30294891 71.76798059 105.90234375 75.65234375 C108.71976401 78.69299507 111.51765015 81.75107729 114.3125 84.8125 C115.69225995 86.31707251 117.07361923 87.82015103 118.45605469 89.32226562 C119.55402956 90.51538443 120.65092121 91.70950048 121.74707031 92.90429688 C148.82050281 122.803405 148.82050281 122.803405 185.75 135.5625 C186.79607422 135.62727539 186.79607422 135.62727539 187.86328125 135.69335938 C189.57531922 135.79889596 191.28763561 135.8998991 193 136 C193 136.66 193 137.32 193 138 C176.01102802 142.81834121 158.87289017 140.20648084 143.3515625 132.015625 C138.09073579 128.85177118 133.56361989 125.08579019 129 121 C128.18144531 120.30132812 127.36289062 119.60265625 126.51953125 118.8828125 C117.50668317 111.05925916 109.63400032 102.10362385 101.83984375 93.08984375 C99.43329844 90.35629441 96.96696804 87.67885994 94.5 85 C90.89984677 81.09020819 87.35582336 77.14133464 83.875 73.125 C80.98080664 69.84491419 78.00781108 66.63731943 75.04467773 63.41967773 C71.9606163 60.0648155 68.94515778 56.66151499 65.96484375 53.21484375 C62.70979318 49.54563168 59.35393653 45.96810914 55.99829102 42.39086914 C52.10796586 38.21593171 52.10796586 38.21593171 51 36 C48.29400158 35.52402634 45.66404596 35.15906371 42.9375 34.875 C42.17888672 34.78863281 41.42027344 34.70226562 40.63867188 34.61328125 C38.76003014 34.40060483 36.88011364 34.19924541 35 34 C35.0670428 41.86570344 35.15686724 49.73091153 35.26245117 57.59619141 C35.29732002 60.27136214 35.32371881 62.94623638 35.34643555 65.62158203 C35.38001267 69.46937788 35.43233279 73.31653489 35.48828125 77.1640625 C35.49467117 78.35802643 35.5010611 79.55199036 35.50764465 80.78213501 C35.60587466 88.82133645 35.60587466 88.82133645 39 96 C42.74974989 99.02063186 46.27019123 99.53629326 51 100 C51 100.66 51 101.32 51 102 C35.82 102 20.64 102 5 102 C5 101.34 5 100.68 5 100 C6.216875 99.7525 7.43375 99.505 8.6875 99.25 C13.2321409 98.10780706 16.52992988 96.30997773 19.11288452 92.25128174 C20.25277774 89.35851203 20.28093046 86.9637023 20.31884766 83.85449219 C20.33871735 82.61350769 20.35858704 81.37252319 20.37905884 80.09393311 C20.39093424 78.74491555 20.40259715 77.39589611 20.4140625 76.046875 C20.43277907 74.66252494 20.45235285 73.27818622 20.4727478 71.89385986 C20.52402362 68.25747373 20.56367346 64.62105063 20.60089111 60.98449707 C20.64095945 57.27082203 20.69203884 53.55730017 20.7421875 49.84375 C20.83889283 42.56260518 20.92331463 35.28138611 21 28 C20.21681396 27.69835937 19.43362793 27.39671875 18.62670898 27.0859375 C9.65783732 23.37801472 4.69701975 14.91896281 0.8359375 6.4453125 C0 4 0 4 0 0 Z " fill="#050505" transform="translate(170,212)"/>
<path d="M0 0 C2.22574335 0.22451458 4.45581519 0.40782878 6.6875 0.5625 C8.770625 0.706875 10.85375 0.85125 13 1 C13 9.58 13 18.16 13 27 C12.34 27 11.68 27 11 27 C10.84144531 26.34773438 10.68289062 25.69546875 10.51953125 25.0234375 C8.64282754 17.99357499 6.61027713 13.6602042 0.625 9.25 C-6.75154865 5.73735779 -14.81694274 4.33188962 -22.71875 6.875 C-29.51222027 9.9852635 -33.97660253 14.04517768 -37.375 20.6875 C-38.85745287 28.54450021 -39.02129132 35.96274019 -35 43 C-32.04594721 47.09385855 -28.61733991 50.0952576 -24.625 53.125 C-23.36706708 54.09619821 -22.10925802 55.06755688 -20.8515625 56.0390625 C-19.8910498 56.77624512 -19.8910498 56.77624512 -18.91113281 57.52832031 C-15.33723428 60.28042307 -11.80029884 63.07965485 -8.2590332 65.87353516 C-5.32073629 68.18820862 -2.37134669 70.48501424 0.60546875 72.75 C15.05435793 83.79799685 26.16228443 95.97557066 35 112 C35 112.33 35 112.66 35 113 C21.75598192 114.56204649 21.75598192 114.56204649 16 113 C12.95199631 109.92142894 11.57039455 107.23578756 9.9609375 103.234375 C7.14407062 98.58822803 4.20877887 97.27775913 -1 96 C-6.19043957 95.41756027 -11.34753025 95.3029939 -16.5625 95.25 C-17.9668328 95.22178687 -19.37113212 95.19185214 -20.77539062 95.16015625 C-24.18328752 95.08989033 -27.59164539 95.04263108 -31 95 C-31 100.94 -31 106.88 -31 113 C-35.62 113 -40.24 113 -45 113 C-45.061875 110.958125 -45.12375 108.91625 -45.1875 106.8125 C-45.48972489 101.16562498 -45.48972489 101.16562498 -48.5625 96.6875 C-49.366875 96.130625 -50.17125 95.57375 -51 95 C-55.08184174 100.75539685 -58.36716862 106.44889605 -61 113 C-62.32 113 -63.64 113 -65 113 C-63.72048379 105.08647041 -59.26403504 98.86563905 -54 93 C-56.31 92.34 -58.62 91.68 -61 91 C-61 90.34 -61 89.68 -61 89 C-42.52 88.67 -24.04 88.34 -5 88 C-20.39853921 75.30647455 -20.39853921 75.30647455 -36.37109375 63.33203125 C-43.38762276 58.38464879 -49.41415474 51.70248967 -51 43 C-51.74142103 33.70020037 -52.14793031 25.14341589 -47 17 C-46.443125 15.989375 -45.88625 14.97875 -45.3125 13.9375 C-34.45569978 0.14642946 -17.13272093 -5.71090698 0 0 Z " fill="#050505" transform="translate(236,77)"/>
<path d="M0 0 C15.51 0 31.02 0 47 0 C43.38326919 10.85019244 39.71975141 17.31570283 29.578125 22.78125 C19.5897577 27.50302363 10.91745214 27.25993934 0 27 C0 18.09 0 9.18 0 0 Z " fill="#FDFDFD" transform="translate(205,212)"/>
<path d="M0 0 C4.10840121 -0.09249684 8.21410613 -0.17192096 12.32299805 -0.21972656 C13.71667814 -0.23967995 15.1102763 -0.26685319 16.50366211 -0.30175781 C32.20946792 -0.6849637 32.20946792 -0.6849637 39 4 C41.15625 6.18359375 41.15625 6.18359375 42.5 8.4375 C42.9640625 9.17871094 43.428125 9.91992188 43.90625 10.68359375 C45 13 45 13 46 18 C30.82 18 15.64 18 0 18 C0 12.06 0 6.12 0 0 Z " fill="#FAFAFA" transform="translate(205,172)"/>
<path d="M0 0 C4.95 0 9.9 0 15 0 C15 6.93 15 13.86 15 21 C5.92428198 14.19321149 5.92428198 14.19321149 3.5625 10.5 C3.08941406 9.7884375 2.61632812 9.076875 2.12890625 8.34375 C1 6 1 6 0 0 Z " fill="#FAFAFA" transform="translate(176,212)"/>
<path d="M0 0 C4.875 3.75 4.875 3.75 6 6 C6.1393329 10.33603979 6.04254111 14.66080671 6 19 C1.05 19 -3.9 19 -9 19 C-7.87207207 11.1045045 -7.87207207 11.1045045 -5.0625 6.6875 C-4.27552734 5.42486328 -4.27552734 5.42486328 -3.47265625 4.13671875 C-2 2 -2 2 0 0 Z " fill="#F8F8F8" transform="translate(185,171)"/>
<path d="M0 0 C0.99 0.33 1.98 0.66 3 1 C2.54109375 1.68964844 2.0821875 2.37929687 1.609375 3.08984375 C-2.17205567 8.88115248 -5.44343314 14.56888461 -8 21 C-9.32 21 -10.64 21 -12 21 C-10.6153314 12.51332149 -5.68291624 6.21155961 0 0 Z " fill="#0E0E0E" transform="translate(183,169)"/>
<path d="M0 0 C1.1446875 0.3403125 1.1446875 0.3403125 2.3125 0.6875 C2.9375 4.0625 2.9375 4.0625 3.3125 7.6875 C1.3125 9.6875 1.3125 9.6875 -1.1875 9.9375 C-3.6875 9.6875 -3.6875 9.6875 -5.6875 7.6875 C-6.05546448 4.81737704 -6.06259409 3.27975382 -4.5 0.8125 C-2.6875 -0.3125 -2.6875 -0.3125 0 0 Z " fill="#262626" transform="translate(353.6875,195.3125)"/>
<path d="M0 0 C1.65 0 3.3 0 5 0 C5.66 0.66 6.32 1.32 7 2 C6.64644564 4.26274788 6.02455574 5.95088852 5 8 C5.99 8 6.98 8 8 8 C8 8.66 8 9.32 8 10 C6.0625 9.625 6.0625 9.625 4 9 C3.67 8.34 3.34 7.68 3 7 C2.67 7.99 2.34 8.98 2 10 C1.34 10 0.68 10 0 10 C0 6.7 0 3.4 0 0 Z " fill="#2D2D2D" transform="translate(147,195)"/>
<path d="M0 0 C3.125 0.375 3.125 0.375 6 1 C6 1.66 6 2.32 6 3 C4.35 3 2.7 3 1 3 C0.67 4.32 0.34 5.64 0 7 C0.66 7 1.32 7 2 7 C2 6.34 2 5.68 2 5 C3.32 5 4.64 5 6 5 C6 6.65 6 8.3 6 10 C2.625 10.1875 2.625 10.1875 -1 10 C-3 7 -3 7 -2.75 4.4375 C-2 2 -2 2 0 0 Z " fill="#303030" transform="translate(371,195)"/>
<path d="M0 0 C0.66 0 1.32 0 2 0 C3.625 2 3.625 2 5 4 C5.33 2.68 5.66 1.36 6 0 C6.66 0 7.32 0 8 0 C8 3.3 8 6.6 8 10 C7.34 10 6.68 10 6 10 C4.375 8 4.375 8 3 6 C2.67 7.32 2.34 8.64 2 10 C1.34 10 0.68 10 0 10 C0 6.7 0 3.4 0 0 Z " fill="#2F2F2F" transform="translate(203,195)"/>
<path d="M0 0 C0.66 0 1.32 0 2 0 C2 1.32 2 2.64 2 4 C3.32 4 4.64 4 6 4 C6 2.68 6 1.36 6 0 C6.66 0 7.32 0 8 0 C8 3.3 8 6.6 8 10 C7.34 10 6.68 10 6 10 C6 8.68 6 7.36 6 6 C4.68 6 3.36 6 2 6 C2 7.32 2 8.64 2 10 C1.34 10 0.68 10 0 10 C0 6.7 0 3.4 0 0 Z " fill="#313131" transform="translate(241,195)"/>
<path d="M0 0 C0.66 0 1.32 0 2 0 C2 2.64 2 5.28 2 8 C3.32 8 4.64 8 6 8 C6 5.69 6 3.38 6 1 C6.66 1 7.32 1 8 1 C8.09765625 7.15234375 8.09765625 7.15234375 8 9 C7 10 7 10 4.5625 10.1875 C2 10 2 10 0 8 C-0.26991906 5.31160615 -0.08737357 2.70858064 0 0 Z " fill="#313131" transform="translate(127,195)"/>
<path d="M0 0 C3 1 3 1 3.94921875 2.84765625 C4.19285156 3.57855469 4.43648437 4.30945313 4.6875 5.0625 C5.06455078 6.16271484 5.06455078 6.16271484 5.44921875 7.28515625 C5.63097656 7.85105469 5.81273437 8.41695312 6 9 C5.34 9 4.68 9 4 9 C4 8.34 4 7.68 4 7 C2.35 7 0.7 7 -1 7 C-1 7.66 -1 8.32 -1 9 C-1.66 9 -2.32 9 -3 9 C-2.01 6.03 -1.02 3.06 0 0 Z " fill="#1B1B1B" transform="translate(186,196)"/>
<path d="M0 0 C2 0.3125 2 0.3125 4 1 C4.33 1.66 4.66 2.32 5 3 C3.35 2.67 1.7 2.34 0 2 C1.25541557 4.51083114 2.50063488 4.87125446 5 6 C4.67 7.32 4.34 8.64 4 10 C2.35 10 0.7 10 -1 10 C-1.33 9.01 -1.66 8.02 -2 7 C-0.68 7 0.64 7 2 7 C0.68 6.34 -0.64 5.68 -2 5 C-1.125 1.125 -1.125 1.125 0 0 Z " fill="#313131" transform="translate(314,195)"/>
<path d="M0 0 C2.0625 0.4375 2.0625 0.4375 4 1 C3.67 1.66 3.34 2.32 3 3 C2.01 2.67 1.02 2.34 0 2 C1.25541557 4.51083114 2.50063488 4.87125446 5 6 C4.67 7.32 4.34 8.64 4 10 C2.35 10 0.7 10 -1 10 C-1 9.01 -1 8.02 -1 7 C-0.01 7 0.98 7 2 7 C0.68 6.34 -0.64 5.68 -2 5 C-1.125 1.125 -1.125 1.125 0 0 Z " fill="#2F2F2F" transform="translate(225,195)"/>
<path d="M0 0 C2.0625 0.4375 2.0625 0.4375 4 1 C3.67 1.66 3.34 2.32 3 3 C2.01 2.67 1.02 2.34 0 2 C1.25541557 4.51083114 2.50063488 4.87125446 5 6 C4.67 7.32 4.34 8.64 4 10 C2.35 10 0.7 10 -1 10 C-1 9.01 -1 8.02 -1 7 C-0.01 7 0.98 7 2 7 C0.68 6.34 -0.64 5.68 -2 5 C-1.125 1.125 -1.125 1.125 0 0 Z " fill="#2F2F2F" transform="translate(111,195)"/>
<path d="M0 0 C0.66 0 1.32 0 2 0 C2 0.66 2 1.32 2 2 C1.34 2 0.68 2 0 2 C0 2.99 0 3.98 0 5 C0.66 5 1.32 5 2 5 C2.33 4.34 2.66 3.68 3 3 C3.99 4.485 3.99 4.485 5 6 C4.67 6.99 4.34 7.98 4 9 C2.02 8.34 0.04 7.68 -2 7 C-2 7.66 -2 8.32 -2 9 C-2.66 8.67 -3.32 8.34 -4 8 C-2.68 5.36 -1.36 2.72 0 0 Z " fill="#222222" transform="translate(296,196)"/>
<path d="M0 0 C0.99 0.33 1.98 0.66 3 1 C2.34 1 1.68 1 1 1 C1 1.99 1 2.98 1 4 C4.0745356 3.2236068 4.0745356 3.2236068 6 1 C5.79375 1.763125 5.5875 2.52625 5.375 3.3125 C4.66608797 6.21885944 4.66608797 6.21885944 7 9 C6.01 9 5.02 9 4 9 C3.67 8.34 3.34 7.68 3 7 C2.67 7.66 2.34 8.32 2 9 C1.34 9 0.68 9 0 9 C0 6.03 0 3.06 0 0 Z " fill="#1D1D1D" transform="translate(275,196)"/>
<path d="M0 0 C2.64 0 5.28 0 8 0 C8 0.66 8 1.32 8 2 C7.01 2 6.02 2 5 2 C5 4.64 5 7.28 5 10 C4.34 10 3.68 10 3 10 C3 7.36 3 4.72 3 2 C2.01 2 1.02 2 0 2 C0 1.34 0 0.68 0 0 Z " fill="#3D3D3D" transform="translate(329,195)"/>
<path d="M0 0 C2.0625 0.4375 2.0625 0.4375 4 1 C4 2.65 4 4.3 4 6 C2.35 6 0.7 6 -1 6 C-1.042721 4.33388095 -1.04063832 2.66617115 -1 1 C-0.67 0.67 -0.34 0.34 0 0 Z " fill="#D6D6D6" transform="translate(351,197)"/>
<path d="M0 0 C0.99 0 1.98 0 3 0 C4.125 3.75 4.125 3.75 3 6 C3.99 6 4.98 6 6 6 C6 6.66 6 7.32 6 8 C4.68 7.67 3.36 7.34 2 7 C2 5.68 2 4.36 2 3 C1.34 3 0.68 3 0 3 C0 2.01 0 1.02 0 0 Z " fill="#6F6F6F" transform="translate(149,197)"/>
<path d="M0 0 C2 2 2 2 2 5 C0.68 5 -0.64 5 -2 5 C-2 5.66 -2 6.32 -2 7 C-2.66 7 -3.32 7 -4 7 C-3.67 5.35 -3.34 3.7 -3 2 C-2.34 2 -1.68 2 -1 2 C-0.67 1.34 -0.34 0.68 0 0 Z " fill="#545454" transform="translate(187,198)"/>
<path d="M0 0 C2.97 0.495 2.97 0.495 6 1 C5.34 2.32 4.68 3.64 4 5 C3.01 5 2.02 5 1 5 C0.67 3.35 0.34 1.7 0 0 Z " fill="#828282" transform="translate(275,195)"/>
<path d="M0 0 C0.99 0.33 1.98 0.66 3 1 C0.63707344 3.52588702 -0.66462511 4.88820837 -4 6 C-2.84826645 3.53199953 -1.95216435 1.95216435 0 0 Z " fill="#2C2C2C" transform="translate(183,169)"/>
<path d="M0 0 C2.97 0.495 2.97 0.495 6 1 C6 1.66 6 2.32 6 3 C3.33333333 3 0.66666667 3 -2 3 C-1.34 2.01 -0.68 1.02 0 0 Z " fill="#3E3E3E" transform="translate(371,195)"/>
</svg>
